<svg xmlns="http://www.w3.org/2000/svg" xmlns:xlink="http://www.w3.org/1999/xlink"><symbol id="icon-android" viewBox="0 0 42.08 47.04"><path d="M34.14 14H7.94v19.1a3.59 3.59 0 003.31 3.62v7.44a2.89 2.89 0 005.77 0v-7.42h8.06v7.42a2.89 2.89 0 005.77 0v-7.44a3.6 3.6 0 003.32-3.62V14.34l-.03-.34zM2.89 15.68a2.88 2.88 0 012.88 2.88v12.38a2.88 2.88 0 01-2.88 2.89A2.89 2.89 0 010 30.94V18.56a2.88 2.88 0 012.89-2.88zm36.31 0a2.88 2.88 0 012.88 2.88v12.38a2.88 2.88 0 01-2.88 2.89 2.89 2.89 0 01-2.89-2.89V18.56a2.88 2.88 0 012.89-2.88zM8 12h26a10.48 10.48 0 00-3.19-7.28L33.32.46A.31.31 0 0033.2 0a.31.31 0 00-.41.11l-2.37 4.15A16.15 16.15 0 0021 .86a16.41 16.41 0 00-9.37 3.4L9.3.15A.32.32 0 008.88 0a.32.32 0 00-.11.42l2.44 4.23A10.52 10.52 0 008 12zm17.32-5.2a1.5 1.5 0 013 0 1.5 1.5 0 01-3 0zm-11.14 0a1.5 1.5 0 013 0 1.5 1.5 0 01-3 0z" fill="#a4c639"/></symbol><symbol id="icon-apple" viewBox="0 0 46.21 56.75"><path d="M38.59 30.15a12.53 12.53 0 007.62 11.48 30.59 30.59 0 01-3.93 8.07c-2.36 3.46-4.82 6.91-8.68 7s-5-2.25-9.37-2.25-5.7 2.18-9.3 2.32S8.36 53 6 49.56c-4.87-7-8.6-19.91-3.6-28.59a13.91 13.91 0 0111.75-7.11c3.66-.07 7.12 2.46 9.36 2.46s6.45-3.05 10.87-2.6a13.28 13.28 0 0110.38 5.63c-.27.17-6.2 3.62-6.14 10.8M31.45 9.06A12.44 12.44 0 0034.4 0 12.75 12.75 0 0026 4.3c-1.83 2.12-3.44 5.52-3 8.78 3.19.25 6.44-1.62 8.42-4" fill="#fff"/></symbol><symbol id="icon-arrow" viewBox="0 0 21.53 41.37"><path d="M2 20.69L21.28 1.43a.83.83 0 000-1.18.84.84 0 00-1.19 0L.25 20.09a.84.84 0 000 1.19l19.84 19.85a.86.86 0 00.6.24.84.84 0 00.59-1.43z"/></symbol><symbol id="icon-facebook" viewBox="0 0 8.67 18.94"><path d="M6.27 3.36h2.4V0H5.8C2.66.18 1.54 2.39 2 6.12H0v3.51h2v9.31h3.8V9.63h2.85V6.12H5.79c-.02-1.05-.04-2.41.48-2.76z"/></symbol><symbol id="icon-htmlacademy" viewBox="0 0 154.38 195.33"><path d="M77.99.62l-.8-.08-76.69 8v140.57l76.69 45.63 76.69-45.63V8.54zm65.86 142.82l-66.66 39.63-66.66-39.67V85.79l66.37 39.5.12 7.16-45.54-27.1-.07 6.95 45.72 27.48.11 7.35-45.7-27.19-.06 6.95 45.71 27.48 46.15-27.62v-7h-.06v-22.7l20.57-12.28zm0-66.06l-18.24 10.75-8.42 5-40.2-23.97-.06 7 34.31 20.4-.3.18-.74.44-4.88 2.87-28.33-16.89-.06 6.95 22.36 13.29-5.28 3.53-.13.08-16.89-9.95-.06 6.95 11.08 6.53-11.29 6.78-66-39.26L76.86 38.3h0zm0-7l-67-39.51h0L10.57 70.34V17.62l66.62-7 66.66 7z" stroke="#231f20" stroke-miterlimit="10"/></symbol><symbol id="icon-logo_desktop" viewBox="0 0 146.3 40.37"><path d="M71.87 18.66a1.29 1.29 0 011.26-1.29h7.18c5.09 0 8.44 2.71 8.44 7.15v.06c0 4.86-4.06 7.38-8.86 7.38h-5.47v6.82a1.28 1.28 0 11-2.55 0V18.66zm8.12 11c3.73 0 6.18-2 6.18-5v-.06c0-3.22-2.41-4.89-6-4.89h-5.7v9.91zM93.6 18.5a1.28 1.28 0 112.55 0v20.28a1.28 1.28 0 11-2.55 0zM102.74 18.53a1.28 1.28 0 011.26-1.25h.35a1.55 1.55 0 011.29.74l13.69 17.45v-17a1.24 1.24 0 112.48 0v20.35a1.14 1.14 0 01-1.16 1.18h-.13a1.71 1.71 0 01-1.32-.78l-14-17.86v17.46a1.26 1.26 0 01-1.2 1.25 1.24 1.24 0 01-1.22-1.25V18.53zM128.17 18.5a1.28 1.28 0 112.55 0v12.33l12.84-13.17a1.48 1.48 0 011-.45 1.28 1.28 0 011.23 1.26 1.29 1.29 0 01-.42.9l-8 7.92L146 37.85a1.44 1.44 0 01.35.94 1.31 1.31 0 01-1.35 1.28 1.24 1.24 0 01-1-.58L135.58 29l-4.86 4.86v4.9a1.27 1.27 0 11-2.54 0V18.5z"/><path d="M98.5 9.87a3.63 3.63 0 01-3.63-3.62 3.62 3.62 0 01-3.62 3.62 3.63 3.63 0 013.62 3.63 3.64 3.64 0 013.63-3.63z" fill="#d22856"/><path d="M43.09 19.31h.73a2.48 2.48 0 00-2.13-1.23 2 2 0 01-1.89-1.35 12.09 12.09 0 00-2.09.82h.19a2 2 0 012 2 2.83 2.83 0 010 .29 8.8 8.8 0 013.19-.53z"/><path d="M60.46 28L55.29 6.65C54.93 4.3 52.69 0 46.69 0a1.5 1.5 0 000 3c4.85 0 5.57 3.73 5.64 4.14l4.76 19.7H55a12 12 0 00-5.3-8.52 2.5 2.5 0 00-1.53 2.3 2.06 2.06 0 010 .26 9.21 9.21 0 014 7.47 9.3 9.3 0 01-.14 1.5 9 9 0 01-17.79 0 9.3 9.3 0 01-.14-1.5 9.34 9.34 0 01.95-4 2 2 0 01-1.86-2 .71.71 0 00-.19-.49 11.84 11.84 0 00-1.79 5h-1.86a12 12 0 00-23.86 0H3.42L8.19 7.14C8.25 6.73 9 3 13.83 3a1.5 1.5 0 000-3c-6 0-8.24 4.3-8.6 6.65L.05 28a1.42 1.42 0 001.43 1.82h4a12.65 12.65 0 00.38 1.83.75.75 0 00.1-.36 2 2 0 012-2 1.85 1.85 0 01.48.07 9.1 9.1 0 01-.07-1.05 9.29 9.29 0 01.13-1.5 9 9 0 0117.8 0 9.29 9.29 0 01.13 1.5 9.06 9.06 0 01-9 9A9 9 0 0112 35.58a2 2 0 01-1.3.49.75.75 0 00-.74.75 2 2 0 01-.18.81 11.91 11.91 0 007.61 2.74 12 12 0 0011.96-10.52h1.81a12 12 0 0023.86 0h4A1.41 1.41 0 0060.46 28z"/><path d="M50.69 16.12a4.49 4.49 0 01-4.5-4.49 4.5 4.5 0 01-4.5 4.49 4.51 4.51 0 014.5 4.5 4.5 4.5 0 014.5-4.5zM37.9 19.63a2.75 2.75 0 01-2.75-2.75 2.75 2.75 0 01-2.74 2.75 2.74 2.74 0 012.74 2.74 2.75 2.75 0 012.75-2.74zM10.73 34.07A2.75 2.75 0 018 31.32a2.75 2.75 0 01-2.74 2.75A2.75 2.75 0 018 36.82a2.75 2.75 0 012.73-2.75z" fill="#d22856"/></symbol><symbol id="icon-logo_footer" viewBox="0 0 146.3 40.37"><path d="M71.87 18.66a1.29 1.29 0 011.26-1.29h7.18c5.09 0 8.44 2.71 8.44 7.15v.06c0 4.86-4.06 7.38-8.86 7.38h-5.47v6.82a1.28 1.28 0 11-2.55 0V18.66zm8.12 11c3.73 0 6.18-2 6.18-5v-.06c0-3.22-2.41-4.89-6-4.89h-5.7v9.91zM93.6 18.5a1.28 1.28 0 112.55 0v20.28a1.28 1.28 0 11-2.55 0zM102.74 18.53a1.28 1.28 0 011.26-1.25h.35a1.55 1.55 0 011.29.74l13.69 17.45v-17a1.24 1.24 0 112.48 0v20.35a1.14 1.14 0 01-1.16 1.18h-.13a1.71 1.71 0 01-1.32-.78l-14-17.86v17.46a1.26 1.26 0 01-1.2 1.25 1.24 1.24 0 01-1.22-1.25V18.53zM128.17 18.5a1.28 1.28 0 112.55 0v12.33l12.84-13.17a1.48 1.48 0 011-.45 1.28 1.28 0 011.23 1.26 1.29 1.29 0 01-.42.9l-8 7.92L146 37.85a1.44 1.44 0 01.35.94 1.31 1.31 0 01-1.35 1.28 1.21 1.21 0 01-1-.58L135.59 29l-4.87 4.86v4.9a1.27 1.27 0 11-2.54 0V18.5z"/><path d="M98.5 9.87a3.63 3.63 0 01-3.63-3.62 3.62 3.62 0 01-3.62 3.62 3.63 3.63 0 013.62 3.63 3.64 3.64 0 013.63-3.63zM43.09 19.31h.73a2.48 2.48 0 00-2.13-1.23 2 2 0 01-1.89-1.35 12.09 12.09 0 00-2.09.82h.19a2 2 0 012 2 2.83 2.83 0 010 .29 8.8 8.8 0 013.19-.53z" fill="#d22856"/><path d="M60.46 28L55.29 6.65C54.93 4.3 52.69 0 46.69 0a1.5 1.5 0 000 3c4.85 0 5.57 3.73 5.64 4.14l4.76 19.7H55a12 12 0 00-5.3-8.52 2.5 2.5 0 00-1.53 2.3 2.06 2.06 0 010 .26 9.21 9.21 0 014 7.47 9.3 9.3 0 01-.14 1.5 9 9 0 01-17.79 0 9.3 9.3 0 01-.14-1.5 9.34 9.34 0 01.95-4 2 2 0 01-1.86-2 .71.71 0 00-.19-.49 11.84 11.84 0 00-1.79 5h-1.86a12 12 0 00-23.86 0H3.42L8.19 7.14C8.25 6.73 9 3 13.83 3a1.5 1.5 0 000-3c-6 0-8.24 4.3-8.6 6.65L.05 28a1.42 1.42 0 001.43 1.82h4a12.65 12.65 0 00.38 1.83.75.75 0 00.1-.36 2 2 0 012-2 2.42 2.42 0 01.48.06 8.79 8.79 0 01-.07-1 9.29 9.29 0 01.13-1.5 9 9 0 0117.8 0 9.29 9.29 0 01.13 1.5A9 9 0 0112 35.58a2 2 0 01-1.3.49.75.75 0 00-.74.75 2 2 0 01-.18.81 11.91 11.91 0 007.61 2.74 12 12 0 0011.96-10.52h1.81a12 12 0 0023.86 0h4A1.41 1.41 0 0060.46 28z" fill="#d22856"/><path d="M50.69 16.12a4.49 4.49 0 01-4.5-4.49 4.5 4.5 0 01-4.5 4.49 4.51 4.51 0 014.5 4.5 4.5 4.5 0 014.5-4.5zM37.9 19.63a2.75 2.75 0 01-2.75-2.75 2.75 2.75 0 01-2.74 2.75 2.74 2.74 0 012.74 2.74 2.75 2.75 0 012.75-2.74zM10.73 34.07A2.75 2.75 0 018 31.32a2.75 2.75 0 01-2.74 2.75A2.75 2.75 0 018 36.82a2.75 2.75 0 012.73-2.75z" fill="#283645"/></symbol><symbol id="icon-logo_mobile" viewBox="0 0 74.43 22.86"><path d="M0 1.45A1.29 1.29 0 011.26.16h7.18c5.08 0 8.43 2.71 8.43 7.15v.06c0 4.86-4.05 7.38-8.85 7.38H2.54v6.82a1.29 1.29 0 01-1.28 1.29A1.29 1.29 0 010 21.57zm8.11 11c3.74 0 6.19-2 6.19-5v-.04c0-3.22-2.42-4.9-6.06-4.9h-5.7v9.92zM21.73 1.29a1.27 1.27 0 112.54 0v20.28a1.27 1.27 0 11-2.54 0V1.29zM30.87 1.32A1.28 1.28 0 0132.13.06h.35a1.57 1.57 0 011.29.74l13.68 17.45v-17a1.24 1.24 0 112.48 0V21.6a1.14 1.14 0 01-1.16 1.19h-.13a1.76 1.76 0 01-1.32-.79l-14-17.87V21.6a1.24 1.24 0 11-2.48 0zM56.3 1.29a1.27 1.27 0 112.54 0v12.33L71.69.45a1.43 1.43 0 011-.45 1.27 1.27 0 011.22 1.26 1.25 1.25 0 01-.42.9l-8 7.92 8.56 10.56a1.39 1.39 0 01.36.93 1.31 1.31 0 01-1.29 1.29 1.22 1.22 0 01-1-.58l-8.4-10.46-4.86 4.86v4.89a1.28 1.28 0 11-2.55 0V1.29z"/></symbol><symbol id="icon-logo_tablet" viewBox="0 0 146.3 40.38"><path d="M71.87 18.66a1.29 1.29 0 011.26-1.29h7.18c5.09 0 8.44 2.71 8.44 7.15v.06c0 4.86-4.06 7.38-8.86 7.38h-5.47v6.82a1.28 1.28 0 11-2.55 0V18.66zm8.12 11c3.73 0 6.18-2 6.18-5v-.06c0-3.22-2.41-4.89-6-4.89h-5.7v9.91zM93.6 18.5a1.28 1.28 0 112.55 0v20.28a1.28 1.28 0 11-2.55 0zM102.74 18.53a1.28 1.28 0 011.26-1.25h.35a1.55 1.55 0 011.29.74l13.69 17.45v-17a1.24 1.24 0 112.48 0v20.35a1.14 1.14 0 01-1.16 1.18h-.13a1.71 1.71 0 01-1.32-.78l-14-17.86v17.46a1.26 1.26 0 01-1.2 1.25 1.24 1.24 0 01-1.22-1.25V18.53zM128.17 18.5a1.28 1.28 0 112.55 0v12.33l12.84-13.17a1.48 1.48 0 011-.45 1.28 1.28 0 011.23 1.26 1.29 1.29 0 01-.42.9l-8 7.92L146 37.85a1.44 1.44 0 01.35.94 1.31 1.31 0 01-1.35 1.28 1.24 1.24 0 01-1-.58L135.58 29l-4.86 4.86v4.9a1.27 1.27 0 11-2.54 0V18.5zM60.46 28L55.29 6.65C54.93 4.3 52.69 0 46.69 0a1.5 1.5 0 000 3c4.85 0 5.57 3.73 5.64 4.14l4.76 19.7H55a12 12 0 00-23.85 0h-1.8a12 12 0 00-23.86 0H3.42l4.77-19.7C8.25 6.73 9 3 13.83 3a1.5 1.5 0 000-3c-6 0-8.24 4.3-8.6 6.65L.05 28a1.42 1.42 0 001.43 1.82h4a12 12 0 0023.85 0h1.81a12 12 0 0023.86 0h4A1.41 1.41 0 0060.46 28zm-34.15 1.84a9 9 0 01-17.92-1.5 9.29 9.29 0 01.13-1.5 9 9 0 0117.79 0 8.29 8.29 0 01.14 1.5 8.12 8.12 0 01-.14 1.5zm25.68 0a9 9 0 01-17.93-1.5 9.3 9.3 0 01.14-1.5 9 9 0 0117.79 0 9.3 9.3 0 01.14 1.5 9.09 9.09 0 01-.13 1.5z"/></symbol><symbol id="icon-twitter" viewBox="0 0 17.5 14.66"><path d="M11.28.15A3.31 3.31 0 0115 1.3c.69-.22 1.37-.47 2.07-.69a2.27 2.27 0 01-.88 1.73 1.62 1.62 0 001.34-.48 2.89 2.89 0 01-1.61 2c-.24 6.59-3.27 11-10.38 10.82h-.49c-.42 0-4.29-.45-5-1.84a6.64 6.64 0 004.84-1.15c-1-.3-2.77-.47-3.07-2.88A2.13 2.13 0 003 8.9C1.76 8.07.38 7.37.46 5.22a2 2 0 001.38.46C1.12 5.44-.19 2.4.92.84c1.87 1.81 3.85 3.52 7.37 3.69C8.51 2.29 9.46.79 11.28.15z"/></symbol><symbol id="icon-windows" viewBox="0 0 43.92 41.99"><path d="M20.87 20H0V0h20.87z" fill="#f05423"/><path d="M43.92 20H23.05V0h20.87z" fill="#84c441"/><path d="M20.87 42H0V22h20.87z" fill="#2dabe2"/><path d="M43.92 42H23.05V22h20.87z" fill="#f9bc15"/></symbol><symbol id="icon-youtube" viewBox="0 0 14.64 13.96"><path d="M1.78 13.78A1.14 1.14 0 010 12.67V1.29A1.14 1.14 0 011.78.18l12.13 5.93c1 .48 1 1.26 0 1.74z"/></symbol><symbol id="no" viewBox="0 0 26.75 26.75"><path d="M15.5 13.38L26.31 2.56a1.49 1.49 0 000-2.12 1.51 1.51 0 00-2.12 0L13.38 11.25 2.56.44a1.49 1.49 0 00-2.12 0 1.51 1.51 0 000 2.12l10.81 10.82L.44 24.19a1.49 1.49 0 000 2.12 1.5 1.5 0 002.12 0L13.38 15.5l10.81 10.81a1.5 1.5 0 002.12 0 1.49 1.49 0 000-2.12z" fill="#f25b26"/></symbol><symbol id="quotation_marks" viewBox="0 0 78.67 63.79"><path d="M35 7.06L30.71 0C28.27 1.5 0 12.21 0 39.62c0 7.23.34 24.17 18.9 24.17 11.19 0 13.94-10.28 13.94-13.59 0-22-21.38-14.17-21.38-14.17C11.46 18 31.26 9.18 35 7.06zM78.67 7.06L74.42 0C72 1.5 43.7 12.21 43.7 39.62c0 7.23.34 24.17 18.91 24.17 11.18 0 13.93-10.28 13.93-13.59 0-22-21.38-14.17-21.38-14.17C55.16 18 75 9.18 78.67 7.06z" fill="#f2f2f2"/></symbol><symbol id="triangle" viewBox="0 0 595.28 61.91"><title>triangle</title><polygon points="297.64 61.91 0 0 595.28 0 297.64 61.91" fill="#000000"/></symbol><symbol id="yes" viewBox="0 0 30.37 21.69"><path d="M29.94.44a1.5 1.5 0 00-2.13 0L10.19 18.07l-7.63-7.63a1.5 1.5 0 00-2.12 2.12l8.69 8.69a1.5 1.5 0 002.12 0L29.94 2.56a1.51 1.51 0 000-2.12z" fill="#3dc644"/></symbol></svg>